<svg width="128" height="128" viewBox="0 0 128 128" fill="none" xmlns="http://www.w3.org/2000/svg">
<path d="M64 128C99.3462 128 128 99.3462 128 64C128 28.6538 99.3462 0 64 0C28.6538 0 0 28.6538 0 64C0 99.3462 28.6538 128 64 128Z" fill="#FCEBDE"/>
<path fill-rule="evenodd" clip-rule="evenodd" d="M111.385 107.019C99.6777 119.908 82.7838 128 64 128C29.2914 128 1.03599 100.371 0.0278461 65.9062C19.8376 64.6294 45.6521 77.3144 69.9297 89.2443C84.9275 96.6141 99.3388 103.696 111.385 107.019ZM104.965 14.8261C93.8653 5.56931 79.583 0 64 0C55.3413 0 47.0841 1.7195 39.5515 4.83567C42.0853 9.45539 53.1555 10.1489 68.5637 11.1141C79.1131 11.7749 91.6961 12.5631 104.965 14.8261Z" fill="#FF918A"/>
<path d="M57.7576 90.4288C57.3889 91.7983 57.2045 92.8518 57.2045 93.5893C57.2045 94.7481 57.5996 95.6172 58.3897 96.1967C59.1798 96.7761 60.523 97.1185 62.4193 97.2238L62.1033 98.8041C58.4687 98.646 53.886 98.567 48.3551 98.567C41.5074 98.567 36.5033 98.646 33.3428 98.8041L33.6588 97.2238C35.5551 97.1185 36.9773 96.9078 37.9255 96.5917C38.8736 96.2757 39.6111 95.6699 40.1378 94.7744C40.7173 93.879 41.2703 92.4304 41.7971 90.4288L52.2267 51.2387C52.5954 49.5004 52.7798 48.2889 52.7798 47.6041C52.7798 46.5506 52.4111 45.7868 51.6736 45.3127C50.9362 44.8387 49.5666 44.549 47.565 44.4436L47.9601 42.8634C51.0152 43.0214 55.8349 43.1004 62.4193 43.1004C64.9477 43.1004 66.844 43.0741 68.1082 43.0214L73.9551 42.9424C80.9082 42.9424 86.044 43.9169 89.3625 45.8658C92.7337 47.8148 94.4193 50.8173 94.4193 54.8732C94.4193 58.8765 93.0234 62.4847 90.2316 65.6979C87.4925 68.9111 83.6209 71.4658 78.6168 73.3621C73.6654 75.2057 67.9502 76.2065 61.4712 76.3646L57.7576 90.4288ZM61.9452 74.7053C65.6325 74.4419 68.6613 73.1777 71.0316 70.9127C73.402 68.595 75.114 65.8033 76.1675 62.5374C77.2209 59.2716 77.7477 56.0057 77.7477 52.7399C77.7477 50.0008 77.2473 47.9465 76.2465 46.5769C75.2983 45.1547 73.7707 44.4436 71.6637 44.4436C70.8209 44.4436 70.2415 44.707 69.9255 45.2337C69.6094 45.7078 69.267 46.7876 68.8983 48.4732C68.793 48.842 68.6876 49.2634 68.5823 49.7374C68.4769 50.2115 68.3452 50.7119 68.1872 51.2387L61.9452 74.7053Z" fill="#2E445E"/>
<path fill-rule="evenodd" clip-rule="evenodd" d="M71.0956 27.693C72.8015 29.4444 80.0393 32.646 83.9997 33.6331C83.9997 33.6331 84.3868 33.7124 84.8061 33.749L83.9997 36.121H52.9378L53.5831 33.7493H74.5345C72.7602 32.4474 69.6439 29.6802 68.8501 27.693H71.0956Z" fill="#2E445E"/>
</svg>
