<svg width="32" height="32" viewBox="0 0 32 32" fill="none" xmlns="http://www.w3.org/2000/svg">
<path fill-rule="evenodd" clip-rule="evenodd" d="M12.0625 10.9375L16 14.875L19.9375 10.9375L16 7L12.0625 10.9375ZM18.5233 10.9375L16 13.4608L13.4767 10.9375L16 8.41421L18.5233 10.9375ZM12.0625 21.0625L16 25L19.9375 21.0625L16 17.125L12.0625 21.0625ZM18.5233 21.0625L16 23.5858L13.4767 21.0625L16 18.5392L18.5233 21.0625ZM7 16L10.9375 12.0625L14.875 16L10.9375 19.9375L7 16ZM10.9375 18.5233L13.4608 16L10.9375 13.4767L8.41421 16L10.9375 18.5233ZM17.125 16L21.0625 19.9375L25 16L21.0625 12.0625L17.125 16ZM23.5858 16L21.0625 18.5233L18.5392 16L21.0625 13.4767L23.5858 16Z" fill="black"/>
</svg>
