<svg xmlns="http://www.w3.org/2000/svg" fill="none" viewBox="0 0 32 32"><path fill="currentColor" fill-rule="evenodd" d="M12.063 10.938 16 14.874l3.938-3.938L16 7l-3.938 3.938Zm6.46 0L16 13.46l-2.523-2.524L16 8.415l2.523 2.524Zm-6.46 10.124L16 25l3.938-3.938L16 17.125l-3.938 3.938Zm6.46 0L16 23.587l-2.523-2.523L16 18.538l2.523 2.523ZM7 16l3.938-3.938L14.874 16l-3.938 3.938L7 16Zm3.938 2.523L13.46 16l-2.524-2.523L8.415 16l2.524 2.523ZM17.125 16l3.938 3.938L25 16l-3.938-3.938L17.125 16Zm6.46 0-2.523 2.523L18.54 16l2.523-2.523L23.587 16Z" clip-rule="evenodd"/></svg>