<svg width="68" height="68" viewBox="0 0 68 68" fill="none" xmlns="http://www.w3.org/2000/svg">
<path d="M34 68C52.7777 68 68 52.7777 68 34C68 15.2223 52.7777 1.52588e-05 34 1.52588e-05C15.2223 1.52588e-05 0 15.2223 0 34C0 52.7777 15.2223 68 34 68Z" fill="#FCEBDE"/>
<path fill-rule="evenodd" clip-rule="evenodd" d="M59.1736 56.8541C52.9538 63.701 43.9789 68 34 68C15.5611 68 0.55037 53.3219 0.0147932 35.0127C10.5387 34.3344 24.2527 41.0733 37.1502 47.411C45.1178 51.3263 52.7738 55.0884 59.1736 56.8541ZM55.7626 7.87635C49.866 2.95869 42.2785 0 34 0C29.4001 0 25.0135 0.913486 21.0117 2.56895C22.3578 5.02318 28.2389 5.39158 36.4245 5.90434C42.0289 6.25541 48.7136 6.67416 55.7626 7.87635Z" fill="#FF918A"/>
<path d="M30.6838 48.0403C30.4879 48.7679 30.3899 49.3276 30.3899 49.7193C30.3899 50.335 30.5998 50.7967 31.0196 51.1045C31.4393 51.4123 32.1529 51.5942 33.1603 51.6502L32.9924 52.4897C31.0615 52.4058 28.627 52.3638 25.6887 52.3638C22.0508 52.3638 19.3924 52.4058 17.7134 52.4897L17.8813 51.6502C18.8887 51.5942 19.6442 51.4823 20.1479 51.3144C20.6517 51.1465 21.0434 50.8247 21.3233 50.349C21.6311 49.8732 21.9249 49.1037 22.2047 48.0403L27.7455 27.2206C27.9414 26.2971 28.0393 25.6535 28.0393 25.2897C28.0393 24.73 27.8434 24.3243 27.4517 24.0724C27.0599 23.8206 26.3323 23.6667 25.2689 23.6107L25.4788 22.7712C27.1019 22.8551 29.6624 22.8971 33.1603 22.8971C34.5035 22.8971 35.5109 22.8831 36.1825 22.8551L39.2887 22.8132C42.9825 22.8132 45.7109 23.3309 47.4739 24.3663C49.2648 25.4016 50.1603 26.9967 50.1603 29.1514C50.1603 31.2782 49.4187 33.1951 47.9356 34.9021C46.4805 36.6091 44.4237 37.9663 41.7652 38.9737C39.1348 39.9531 36.0986 40.4848 32.6566 40.5687L30.6838 48.0403ZM32.9084 39.6872C34.8673 39.5473 36.4763 38.8757 37.7356 37.6724C38.9949 36.4411 39.9043 34.958 40.464 33.223C41.0237 31.4881 41.3035 29.7531 41.3035 28.0181C41.3035 26.563 41.0377 25.4716 40.506 24.744C40.0023 23.9885 39.1907 23.6107 38.0714 23.6107C37.6237 23.6107 37.3158 23.7506 37.1479 24.0304C36.98 24.2823 36.7982 24.856 36.6023 25.7514C36.5463 25.9473 36.4903 26.1712 36.4344 26.423C36.3784 26.6749 36.3084 26.9407 36.2245 27.2206L32.9084 39.6872Z" fill="#2E445E"/>
<path fill-rule="evenodd" clip-rule="evenodd" d="M37.7696 14.7119C38.6758 15.6424 42.5209 17.3432 44.6249 17.8676C44.6249 17.8676 44.8306 17.9097 45.0533 17.9292L44.6249 19.1893H28.1233L28.4661 17.9293H39.5965C38.6539 17.2377 36.9984 15.7676 36.5767 14.7119H37.7696Z" fill="#2E445E"/>
</svg>
