<svg width="486" height="486" viewBox="0 0 486 486" fill="none" xmlns="http://www.w3.org/2000/svg">
<g clip-path="url(#clip0)">
<mask id="mask0" mask-type="alpha" maskUnits="userSpaceOnUse" x="0" y="0" width="486" height="486">
<circle cx="243" cy="243" r="243" fill="#C4C4C4"/>
</mask>
<g mask="url(#mask0)">
<rect width="537.618" height="610.677" transform="matrix(-1 0 0 1 529.62 -90.9999)" fill="#F2E0D3"/>
<path d="M179.497 -42.0042C79.8255 66.4958 233.5 24.5 413.5 59C529.221 81.1798 596.433 313.301 521.605 394.146C429.322 493.85 97.7978 177.744 -52.9498 265.468C-161.002 328.346 96.7498 467.453 -20.5516 491.888C-173.683 523.786 -164.343 616.144 -88.4428 693.477L-16.8282 846.825L131.828 920.235C221.898 940.154 623.857 655.138 786 187C965.897 -332.397 39.8087 -262.796 135 -246.5L179.497 -42.0042Z" fill="#FF918A"/>
<path d="M219.3 336.2C217.9 341.4 217.2 345.4 217.2 348.2C217.2 352.6 218.7 355.9 221.7 358.1C224.7 360.3 229.8 361.6 237 362L235.8 368C222 367.4 204.6 367.1 183.6 367.1C157.6 367.1 138.6 367.4 126.6 368L127.8 362C135 361.6 140.4 360.8 144 359.6C147.6 358.4 150.4 356.1 152.4 352.7C154.6 349.3 156.7 343.8 158.7 336.2L198.3 187.4C199.7 180.8 200.4 176.2 200.4 173.6C200.4 169.6 199 166.7 196.2 164.9C193.4 163.1 188.2 162 180.6 161.6L182.1 155.6C193.7 156.2 212 156.5 237 156.5C246.6 156.5 253.8 156.4 258.6 156.2L280.8 155.9C307.2 155.9 326.7 159.6 339.3 167C352.1 174.4 358.5 185.8 358.5 201.2C358.5 216.4 353.2 230.1 342.6 242.3C332.2 254.5 317.5 264.2 298.5 271.4C279.7 278.4 258 282.2 233.4 282.8L219.3 336.2ZM235.2 276.5C249.2 275.5 260.7 270.7 269.7 262.1C278.7 253.3 285.2 242.7 289.2 230.3C293.2 217.9 295.2 205.5 295.2 193.1C295.2 182.7 293.3 174.9 289.5 169.7C285.9 164.3 280.1 161.6 272.1 161.6C268.9 161.6 266.7 162.6 265.5 164.6C264.3 166.4 263 170.5 261.6 176.9C261.2 178.3 260.8 179.9 260.4 181.7C260 183.5 259.5 185.4 258.9 187.4L235.2 276.5Z" fill="#2E445E"/>
<path fill-rule="evenodd" clip-rule="evenodd" d="M269.943 98C276.42 104.65 303.901 116.806 318.938 120.554C318.938 120.554 320.408 120.855 322 120.994L318.938 130H201L203.45 120.994H283C276.263 116.052 264.431 105.545 261.417 98H269.943Z" fill="#2E445E"/>
</g>
</g>
<defs>
<clipPath id="clip0">
<rect width="486" height="486" fill="white"/>
</clipPath>
</defs>
</svg>
