<svg width="486" height="486" viewBox="0 0 486 486" fill="none" xmlns="http://www.w3.org/2000/svg">
<g clip-path="url(#clip0)">
<mask id="mask0" mask-type="alpha" maskUnits="userSpaceOnUse" x="0" y="0" width="486" height="486">
<circle cx="243" cy="243" r="243" fill="#C4C4C4"/>
</mask>
<g mask="url(#mask0)">
<rect width="537.618" height="610.677" transform="matrix(-1 0 0 1 529.621 -90.9998)" fill="#FFF7F6"/>
<path d="M179.497 -42.0035C79.8254 66.4965 233.5 24.5007 413.5 59.0007C529.221 81.1806 596.433 313.302 521.605 394.147C429.322 493.85 97.7976 177.745 -52.9499 265.468C-161.002 328.347 96.7497 467.454 -20.5517 491.888C-173.683 523.786 -164.343 616.145 -88.443 693.477L-16.8283 846.825L131.828 920.236C221.898 940.155 623.857 655.139 786 187.001C965.897 -332.396 39.8086 -262.795 135 -246.499L179.497 -42.0035Z" fill="#FF918A"/>
<path d="M219.369 336.213C218.002 341.096 217.318 345.1 217.318 348.225C217.318 352.619 218.783 355.939 221.713 358.186C224.74 360.334 229.818 361.604 236.947 361.994L235.775 368C222.006 367.414 204.623 367.121 183.627 367.121C157.65 367.121 138.656 367.414 126.645 368L127.816 361.994C135.043 361.701 140.414 360.92 143.93 359.65C147.543 358.381 150.424 356.037 152.572 352.619C154.721 349.201 156.771 343.732 158.725 336.213L198.275 187.385C199.643 179.768 200.326 175.178 200.326 173.615C200.326 169.611 198.91 166.73 196.078 164.973C193.246 163.117 188.07 161.994 180.551 161.604L182.162 155.598C193.783 156.184 212.045 156.477 236.947 156.477C241.732 156.477 248.959 156.379 258.627 156.184C268.393 155.988 275.766 155.891 280.746 155.891C307.113 155.891 326.645 159.602 339.34 167.023C352.133 174.445 358.529 185.822 358.529 201.154C358.529 216.291 353.305 229.963 342.855 242.17C332.406 254.279 317.709 263.947 298.764 271.174C279.818 278.303 258.09 282.16 233.578 282.746L219.369 336.213ZM235.189 276.594C249.154 275.617 260.629 270.783 269.613 262.092C278.598 253.303 285.092 242.707 289.096 230.305C293.197 217.902 295.248 205.5 295.248 193.098C295.248 182.746 293.393 174.934 289.682 169.66C285.971 164.289 280.111 161.604 272.104 161.604C268.881 161.604 266.684 162.531 265.512 164.387C264.438 166.242 263.314 169.611 262.143 174.494C260.971 179.377 259.896 183.674 258.92 187.385L235.189 276.594Z" fill="#2E445E"/>
<path fill-rule="evenodd" clip-rule="evenodd" d="M269.943 98C276.42 104.65 303.902 116.806 318.938 120.554C318.938 120.554 320.408 120.855 322 120.994L318.938 130H201L203.45 120.994H283C276.264 116.052 264.431 105.545 261.418 98H269.943Z" fill="#2E445E"/>
</g>
</g>
<defs>
<clipPath id="clip0">
<rect width="486" height="486" fill="white"/>
</clipPath>
</defs>
</svg>
